# xmcd
#
# Track frame offsets:
#	150
#	21850
#	41635
#	66616
#	89037
#	112610
#	132601
#	148985
#	170994
#	192490
#	211766
#
# Disc length: 3050 seconds
#
# Revision: 4
# Processed by: cddbd v1.4PL0 Copyright (c) Steve Scherf et al.
# Submitted via: audiograbber 1.80
#
DISCID=b10be80b
DTITLE=Miguel Bosé - Sereno
DYEAR=2001
DGENRE=Pop
TTITLE0=Puede Que
TTITLE1=Gulliver
TTITLE2=Mirarte
TTITLE3=El Hijo Del Capitán Trueno
TTITLE4=Te Digo Amor
TTITLE5=Tic Tac
TTITLE6=Mientras Respire
TTITLE7=Morenamía
TTITLE8=La Noche Me Gusta
TTITLE9=Millones De Km. De Aqui
TTITLE10=Sereno
EXTD=YEAR: 2001 ID3G: 13
EXTT0=
EXTT1=
EXTT2=
EXTT3=
EXTT4=
EXTT5=
EXTT6=
EXTT7=
EXTT8=
EXTT9=
EXTT10=
PLAYORDER=
